<?xml version="1.0" encoding="utf-8"?>
<svg viewBox="361.142 252.566 85.34 99.245" xmlns="http://www.w3.org/2000/svg"  width="20" height="20">
  <path d="M 435.814 292.263 L 387.81 292.263 L 387.81 277.377 C 387.81 269.169 394.99 262.491 403.812 262.491 C 412.634 262.491 419.813 269.169 419.813 277.377 L 430.48 277.377 C 430.48 263.696 418.516 252.566 403.812 252.566 C 389.106 252.566 377.143 263.696 377.143 277.377 L 377.143 292.263 L 371.809 292.263 C 365.918 292.263 361.142 296.707 361.142 302.188 L 361.142 341.886 C 361.142 347.368 365.918 351.811 371.809 351.811 L 435.814 351.811 C 441.706 351.811 446.482 347.368 446.482 341.886 L 446.482 302.188 C 446.482 296.707 441.706 292.263 435.814 292.263 Z M 393.47 319.551 C 395.547 312.151 405.455 309.62 411.304 314.993 C 413.33 316.855 414.472 319.389 414.479 322.037 C 414.472 325.57 412.439 328.829 409.145 330.587 L 409.145 341.886 L 398.478 341.886 L 398.478 330.587 C 394.329 328.377 392.279 323.859 393.47 319.551 Z" style="fill: rgb(255, 255, 255); stroke-width: 6px; stroke: rgb(3, 3, 3);"/>
</svg>