<?xml version="1.0" encoding="utf-8"?>
<svg viewBox="346.17 249.332 85.507 99.037" xmlns="http://www.w3.org/2000/svg" width="20" height="20">
  <path d="M 388.924 249.332 C 374.19 249.332 362.203 260.439 362.203 274.091 L 362.203 288.947 L 356.859 288.947 C 350.956 288.947 346.17 293.38 346.17 298.85 L 346.17 338.464 C 346.17 343.933 350.956 348.369 356.859 348.369 L 420.989 348.369 C 426.892 348.369 431.677 343.933 431.677 338.464 L 431.677 298.85 C 431.677 293.38 426.892 288.947 420.989 288.947 L 415.644 288.947 L 415.644 274.091 C 415.644 260.439 403.658 249.332 388.924 249.332 Z M 372.891 274.091 C 372.891 265.901 380.084 259.236 388.924 259.236 C 397.763 259.236 404.956 265.901 404.956 274.091 L 404.956 288.947 L 372.891 288.947 L 372.891 274.091 Z M 394.268 327.19 L 394.268 338.464 L 383.579 338.464 L 383.579 327.19 C 376.464 323.414 376.428 313.918 383.514 310.096 C 384.477 309.577 385.521 309.201 386.61 308.982 C 393.285 307.614 399.613 312.323 399.612 318.657 C 399.606 322.182 397.568 325.436 394.268 327.19 Z" style="fill: rgb(255, 255, 255); stroke: rgb(0, 0, 0); stroke-width: 6px;"/>
</svg>