<?xml version="1.0" encoding="utf-8"?>
<svg viewBox="0 0 500 500" xmlns="http://www.w3.org/2000/svg"  width="20" height="20">
  <path d="M 418.274 85.297 L 374.237 41.259 C 366.597 33.617 356.232 29.325 345.427 29.325 L 199.325 29.325 C 176.823 29.325 158.582 47.565 158.582 70.067 L 158.582 110.812 L 90.678 110.812 C 68.173 110.812 49.932 129.053 49.932 151.555 L 49.932 423.182 C 49.932 445.687 68.173 463.927 90.678 463.927 L 280.815 463.927 C 303.315 463.927 321.559 445.687 321.559 423.182 L 321.559 382.44 L 389.467 382.44 C 411.969 382.44 430.209 364.198 430.209 341.695 L 430.209 114.105 C 430.207 103.302 425.917 92.937 418.274 85.297 Z M 275.723 423.182 L 95.769 423.182 C 92.955 423.182 90.678 420.902 90.678 418.09 L 90.678 156.65 C 90.678 153.838 92.955 151.555 95.769 151.555 L 158.582 151.555 L 158.582 341.695 C 158.582 364.198 176.823 382.44 199.325 382.44 L 280.815 382.44 L 280.815 418.09 C 280.815 420.902 278.534 423.182 275.723 423.182 Z M 384.372 341.695 L 204.419 341.695 C 201.608 341.695 199.325 339.414 199.325 336.602 L 199.325 75.162 C 199.325 72.348 201.608 70.067 204.419 70.067 L 294.397 70.067 L 294.397 144.766 C 294.397 156.017 303.515 165.137 314.769 165.137 L 389.467 165.137 L 389.467 336.602 C 389.467 339.414 387.184 341.695 384.372 341.695 Z M 389.467 124.395 L 335.139 124.395 L 335.139 70.067 L 343.318 70.067 C 344.666 70.067 345.962 70.602 346.918 71.559 L 387.973 112.616 C 388.931 113.57 389.467 114.865 389.467 116.217 L 389.467 124.395 Z" style="stroke: rgb(0, 0, 0); stroke-width: 0px;"/>
</svg>