<?xml version="1.0" encoding="UTF-8"?>
<svg id="Camada_2" data-name="Camada 2" xmlns="http://www.w3.org/2000/svg" viewBox="0 0 46 44.84">
  <defs>
    <style>
      .cls-1 {
        fill: #0a3871;;
      }
    </style>
  </defs>
  <g id="Camada_1-2" data-name="Camada 1">
    <path class="cls-1" d="m15.79,44.84c.71-.31,1.21-1.01,1.21-1.84v-5.4c0-.2.02-.4.04-.61-.01,0-.03,0-.04.01h-3.6c-1.5,0-2.8-.6-3.4-1.8-.7-1.3-1-3.5-2.8-4.7-.3-.2-.1-.5.5-.5.6.1,1.9.9,2.7,2,.9,1.1,1.8,2,3.4,2,2.49,0,3.82-.12,4.62-.56.93-1.39,2.23-2.44,3.58-2.44v-.03c-5.67-.18-9.29-2.07-10.98-4.98-3.66.04-6.86.41-8.68.71-.06-.33-.11-.66-.15-.99,1.8-.3,4.84-.65,8.35-.71-.11-.28-.21-.56-.29-.85-3.51-.18-6.54-.04-8.19.1-.02-.33-.05-.66-.05-1,1.65-.14,4.6-.27,8.02-.11-.08-.5-.13-1.01-.13-1.54,0-1.7.6-3.5,1.7-5-.5-1.7-1.2-5.3.2-6.6,2.7,0,4.6,1.3,5.5,2.1,1.7-.7,3.6-1.1,5.7-1.1s4,.4,5.6,1.1c.9-.8,2.8-2.1,5.5-2.1,1.5,1.4.7,5,.2,6.6,1.1,1.5,1.7,3.2,1.6,5,0,.48-.04.95-.11,1.41,3.5-.17,6.53-.03,8.2.1,0,.34-.03.67-.05,1-1.67-.14-4.78-.28-8.36-.09-.09.34-.2.66-.33.98,3.55.05,6.67.39,8.55.69-.04.33-.09.66-.15.99-1.91-.31-5.17-.66-8.88-.68-1.66,2.88-5.22,4.76-10.78,4.97v.03c2.6,0,5,3.9,5,6.6v5.4c0,.82.5,1.53,1.21,1.84,9.16-3.03,15.79-11.67,15.79-21.84C46,10.32,35.68,0,23,0S0,10.32,0,23c0,10.16,6.63,18.8,15.79,21.84Z"/>
  </g>
</svg>