<?xml version="1.0" encoding="UTF-8"?>
<svg id="Camada_2" data-name="Camada 2" xmlns="http://www.w3.org/2000/svg" viewBox="0 0 64 64">
  <defs>
    <style>
      .cls-1 {
        fill: #dd8b46;
      }

      .cls-2 {
        fill: #83a378;
      }

      .cls-3 {
        fill: #85b1b3;
      }

      .cls-4 {
        fill: #7faeb1;
      }

      .cls-5 {
        fill: #dd8840;
      }
    </style>
  </defs>
  <g id="Camada_1-2" data-name="Camada 1">
    <g>
      <path class="cls-2" d="m0,62.7c.61-1.02.4-2.14.34-3.24-.2-.71.23-1.24.42-1.84.31-2.03.9-4.02.86-6.11,0-1.46.27-2.86.86-4.18.16-.49.58-.47.93-.57.94-.6,1.93-.83,3-.46,1.29,0,2.58,0,3.87,0,.8-.56,1.65-.77,2.57-.46,5.87.05,11.74.1,17.62.15.56.27,1.13.39,1.69,0,3.03-.19,6.04-.1,9.04.47,2.14.58,4.28.68,6.43,0,.73.03,1.52-.42,2.16.32,1.98.62,3.97.89,5.98.14,1-.02,1.99-.04,2.99-.07.61-.02.95.22.83.95-.13.64-.15,1.27.12,1.88.08,1.71.42,3.42,0,5.14-.51.59-.58,1.21-.12,1.87.04.52.24,1.09-.34,1.45-1.47,3.31-4.4,3.94-7.27,4.66-.34.63-.87.41-1.36.36-1.56-.36-3.11-.3-4.65.1-.49.73-1.17.37-1.79.37-3.96-.44-7.93-.15-11.9-.15-2.03,0-4.09-.5-6.11.15-1.29.05-2.58.1-3.88.15-3.59.39-7.17.32-10.72-.46-3.01,0-6.01,0-9.02,0-.94.28-1.83.25-2.55-.6Z"/>
      <path class="cls-3" d="m21.86,24.79c.91.34,1.35-.86,2.18-.81,1.24.81,2.26-.39,3.4-.47,1.16-.09,2.25-.85,3.47-.47,2.13.64,4.25.45,6.37-.1.22-.37.57-.45.93-.43,3.99.29,7.94-.65,11.92-.46,3.47.16,6.9-.58,10.36-.5,2.41.06,3.32.79,3.42,3.34.21,5.11.31,10.22-2.51,14.75-.4.65-.69,1.12-1.42,1.1-1.7-.04-3.39.02-5.06.39-5.88-.37-11.76-.17-17.64-.23-2.26-.02-4.53-.12-6.79.24-.9-.04-1.85.46-2.66-.37-2.51-.69-5.09-.31-7.63-.61-1.59-.19-2.43-.78-2.98-2.23.02-.81-.37-1.69.34-2.38.25-1.84.83-3.65.52-5.56,0-.87.31-1.64.74-2.35.77-1.27,1.94-2.02,3.05-2.85Z"/>
      <path class="cls-1" d="m54.05.12c2.01-.44,3.92.45,5.92.47,1.62.02,2.19,1.59,2.22,3.12.08,3.97,0,7.95.05,11.92.01,1.09-.48,1.24-1.31,1.27-7.76.25-15.5,1.15-23.28.93-3.42-.1-4.43-.81-4.56-4.37-.13-3.75.2-7.51,1.08-11.16.7-2.9,2.97-2.15,4.85-2.19,1.04.78,2.22.4,3.31.36,3.9-.14,7.83.49,11.71-.36Z"/>
      <path class="cls-5" d="m54.05.12c-.31.6-.78.86-1.41.86-4.48,0-8.97,0-13.45,0-1.23,0-.31-.53-.16-.86,5.01,0,10.02,0,15.02,0Z"/>
      <path class="cls-4" d="m30.48,41.15c2.38-.85,4.84-.51,7.27-.59,5.54-.17,11.09.47,16.64.02.36-.03.47.24.53.57-8.14,0-16.29,0-24.43,0Z"/>
      <path class="cls-2" d="m26.16,63.62c-.06-.78.49-.63.86-.62,5.52.19,11.03.3,16.55.03.19,0,.4.38.6.58-6,0-12.01,0-18.01,0Z"/>
      <path class="cls-3" d="m17.21,37.94c.07-.03.18-.09.19-.07,1.97,3.38,5.25,1.6,7.89,2.34.92.26,1.94.1,2.92.14.03,0,.06.09.1.14-.16.1-.32.2-.48.3-2.9-.09-5.8.14-8.69-.45-1.36-.28-2.1-.82-1.92-2.4Z"/>
      <path class="cls-2" d="m51.97,62.79c.57-.98,1.61-.66,2.41-.94,1.75-.62,3.3-1.39,4.17-3.29.1-.21.14-.93.69-.43-1.11,3.99-4.19,4.31-7.27,4.66Z"/>
      <path class="cls-2" d="m47.62,46.45c-1.57,1.24-4.57,1.24-6.43,0,2.14,0,4.28,0,6.43,0Z"/>
      <path class="cls-3" d="m37.27,22.95c.08.12.16.24.24.36-2.21.13-4.46,1.35-6.61-.26,2.12-.03,4.25-.07,6.37-.1Z"/>
      <path class="cls-2" d="m55.77,46.92c-2.03,1.71-4.01.87-5.98-.14,1.99.05,3.99.1,5.98.14Z"/>
      <path class="cls-3" d="m18.07,30c.72.02.42.57.47.99.19,1.62-.83,3.08-.49,4.7,0,.02-.13.12-.16.1-.12-.06-.23-.15-.34-.23.04-1.87-.1-3.76.52-5.56Z"/>
      <path class="cls-2" d="m45.96,63.25c-.07-.01-.15,0-.21-.04-.1-.07-.18-.18-.27-.27,1.72-.22,3.45-.78,5.13.21-1.55-.1-3.09.58-4.65.1Z"/>
      <path class="cls-3" d="m21.86,24.79c-.82,1.2-1.98,1.97-3.05,2.85.42-1.7,1.61-2.43,3.05-2.85Z"/>
      <path class="cls-3" d="m27.43,23.51c-1.08.59-2.08,1.93-3.4.47,1.16.11,2.21-.82,3.4-.47Z"/>
      <path class="cls-2" d="m59.58,56.68c-.24.03-.7.41-.66-.01.07-.65-.23-1.63.78-1.86-.04.62-.08,1.25-.12,1.87Z"/>
      <path class="cls-2" d="m59.69,49.68c-.66-.58-.64-1.21-.12-1.88.46.6.35,1.23.12,1.88Z"/>
      <path class="cls-2" d="m32.16,45.98c-.56,1.09-1.13.56-1.69,0,.56,0,1.13,0,1.69,0Z"/>
    </g>
  </g>
</svg>