<?xml version="1.0" encoding="UTF-8"?>
<svg id="Camada_2" data-name="Camada 2" xmlns="http://www.w3.org/2000/svg" viewBox="0 0 32 48">
  <defs>
    <style>
      .cls-1 {
        fill: #0a3871;;
        fill-rule: evenodd;
      }
    </style>
  </defs>
  <g id="Camada_1-2" data-name="Camada 1">
    <path class="cls-1" d="m24.08,23.65c-.04.28-.15.54-.32.77-.16.23-.38.42-.63.56-.51.32-.95.48-1.4.64-.96.32-1.97.64-3.03,1.02-1.12.37-2.13.75-3.03,1.02-1.12.37-2.19.69-3.2,1.07-.76.32-1.48.73-2.13,1.23-.61.53-1.13,1.14-1.57,1.82-.45.75-.73,1.71-.73,2.83,0,2.24.56,3.95,1.69,5.02,1.12,1.12,3.2,1.66,6.29,1.66s5.28-.59,6.4-1.76c1.12-1.17,1.68-2.83,1.68-4.96v-10.9h0ZM16,0c5.5,0,9.55,1.02,12.13,3.1,2.58,2.03,3.87,4.64,3.87,7.74v26.38c0,1.07-.22,2.24-.61,3.52-.4,1.29-1.18,2.46-2.42,3.52-1.18,1.07-2.81,1.98-4.88,2.67-2.08.69-4.77,1.07-8.09,1.07s-6.01-.37-8.08-1.07c-2.07-.69-3.71-1.6-4.88-2.67-1.1-.96-1.93-2.17-2.41-3.52-.4-1.28-.62-2.45-.62-3.52v-4.22c0-2.24.62-4.33,1.85-6.14,1.24-1.87,2.97-3.15,5.22-3.95,1.12-.37,2.41-.75,3.87-1.23,1.46-.48,2.81-.96,4.16-1.39,1.35-.43,2.53-.86,3.54-1.23.61-.24,1.23-.45,1.85-.64l1.01-.48c.4-.21.79-.53,1.18-.96.39-.42.73-.91,1.01-1.44.3-.58.45-1.22.45-1.87v-1.71c0-.63-.13-1.25-.4-1.82-.22-.64-.67-1.23-1.29-1.76-.62-.53-1.46-.96-2.47-1.29-1.01-.32-2.36-.48-3.87-.48-3.14,0-5.22.59-6.34,1.82-.95,1.07-1.51,2.4-1.63,3.9,0,.32-.28.53-.62.53l-6.85.11c-.16,0-.32-.06-.43-.17-.12-.11-.18-.26-.18-.42v-1.54c0-1.5.28-2.89.9-4.22.62-1.34,1.57-2.46,2.86-3.42,1.29-.96,2.98-1.76,5-2.29,1.97-.64,4.38-.91,7.19-.91h0Z"/>
  </g>
</svg>