<?xml version="1.0" encoding="UTF-8"?>
<svg id="Camada_2" data-name="Camada 2" xmlns="http://www.w3.org/2000/svg" viewBox="0 0 26 26">
  <defs>
    <style>
      .cls-1 {
        fill: #a688fa;;
      }
    </style>
  </defs>
  <g id="Camada_1-2" data-name="Camada 1">
    <path class="cls-1" d="m21.12,0H4.88C2.18,0,0,2.18,0,4.88v16.25c0,2.69,2.18,4.88,4.88,4.88h16.25c2.69,0,4.88-2.18,4.88-4.88V4.88c0-2.69-2.18-4.88-4.88-4.88Zm-13.09,22.07h-4.04l-.02-12.09h4.04l.02,12.09Zm-2.12-13.68h-.02c-1.32,0-2.17-.91-2.17-2.04s.88-2.04,2.22-2.04,2.17.88,2.2,2.04c0,1.13-.86,2.04-2.22,2.04Zm16.12,13.68h-4.07v-6.57c0-1.59-.42-2.67-1.84-2.67-1.09,0-1.67.73-1.95,1.44-.11.25-.13.6-.13.96v6.85h-4.09l-.02-12.09h4.09l.02,1.71c.52-.81,1.39-1.95,3.48-1.95,2.59,0,4.52,1.69,4.52,5.32v7.02h0Z"/>
  </g>
</svg>